<?xml version="1.0" encoding="utf-8"?>
<!-- Svg Vector Icons : http://www.onlinewebfonts.com/icon -->
<!DOCTYPE svg PUBLIC "-//W3C//DTD SVG 1.1//EN" "http://www.w3.org/Graphics/SVG/1.1/DTD/svg11.dtd">
<svg version="1.1" xmlns="http://www.w3.org/2000/svg" xmlns:xlink="http://www.w3.org/1999/xlink" x="0px" y="0px" viewBox="0 0 256 256" enable-background="new 0 0 256 256" xml:space="preserve">
<metadata> Svg Vector Icons : http://www.onlinewebfonts.com/icon </metadata>
<g><g><g><path fill="#000000" d="M26.8,38.6c-6.2,1.2-12.1,5.8-14.9,11.7C9,56.3,9.5,64.3,13.1,69.9c2,3.1,5.2,5.9,8.9,7.7l3.6,1.7H128h102.5l3.2-1.5c10.7-5.1,15.1-17.2,10.2-27.7c-2.9-6-8.6-10.4-15.1-11.6C225.7,37.9,29.8,37.9,26.8,38.6z"/><path fill="#000000" d="M26,108c-6.2,1.5-11.5,5.8-14.2,11.6c-1.4,3.1-1.5,3.6-1.5,8.5c0,5.2,0,5.4,1.8,8.9c2.2,4.4,5.8,8,10.3,10.1l3.2,1.5l101.3,0.1c91.6,0.1,101.5,0,103.9-0.7c3.9-1.1,6.9-2.9,9.5-5.7c11.3-12,4.9-31.5-11.4-34.6C224.9,107,29.2,107.2,26,108z"/><path fill="#000000" d="M26.3,177.3c-6.2,1.3-11.7,5.7-14.4,11.5c-1.8,3.7-2.4,9.7-1.4,13.4c1.5,6.1,6,11.4,11.9,14.2l3.2,1.5H128h102.5l3.2-1.5c13.2-6.3,16.4-23,6.2-33.4c-2.8-2.9-7-5.1-11.1-5.9C225,176.3,29.7,176.5,26.3,177.3z"/></g></g></g>
</svg>